<?xml version="1.0" encoding="UTF-8"?>
<!-- Generator: Adobe Illustrator 23.1.1, SVG Export Plug-In . SVG Version: 6.00 Build 0)  -->
<svg version="1.1" id="Calque_1" xmlns="http://www.w3.org/2000/svg" xmlns:xlink="http://www.w3.org/1999/xlink" x="0px" y="0px" viewBox="0 0 55 55" style="enable-background:new 0 0 55 55;" xml:space="preserve">
<style type="text/css">
	.st0{fill:#3D5A98;}
</style>
<path class="st0" d="M27.5,53.9c-14.6,0-26.4-11.8-26.4-26.4c0-14.6,11.8-26.4,26.4-26.4c14.6,0,26.4,11.8,26.4,26.4  C53.9,42.1,42.1,53.9,27.5,53.9z M27.5,3.1C14,3.1,3.1,14,3.1,27.5S14,51.9,27.5,51.9S51.9,41,51.9,27.5S41,3.1,27.5,3.1z"/>
<path class="st0" d="M29.7,44.9V29H35l0.8-6.2h-6.1v-4c0-1.8,0.5-3,3.1-3l3.3,0v-5.5c-0.6-0.1-2.5-0.2-4.8-0.2c-4.7,0-8,2.9-8,8.2  v4.6h-5.4V29h5.4v15.9H29.7z"/>
</svg>