<?xml version="1.0" encoding="UTF-8"?>
<!-- Generator: Adobe Illustrator 23.1.1, SVG Export Plug-In . SVG Version: 6.00 Build 0)  -->
<svg version="1.1" id="Calque_1" xmlns="http://www.w3.org/2000/svg" xmlns:xlink="http://www.w3.org/1999/xlink" x="0px" y="0px" viewBox="0 0 55 55" style="enable-background:new 0 0 55 55;" xml:space="preserve">
<style type="text/css">
	.st0{fill:url(#SVGID_1_);}
	.st1{fill:url(#SVGID_2_);}
	.st2{fill:#5C6CB2;}
	.st3{fill:url(#SVGID_3_);}
</style>
<g>
	
		<linearGradient id="SVGID_1_" gradientUnits="userSpaceOnUse" x1="18.1887" y1="12.3959" x2="36.7909" y2="44.6158" gradientTransform="matrix(1 0 0 -1 0 56)">
		<stop offset="0" style="stop-color:#FFD676"/>
		<stop offset="0.2463" style="stop-color:#F2A454"/>
		<stop offset="0.3793" style="stop-color:#F05C3C"/>
		<stop offset="0.6995" style="stop-color:#C22F86"/>
		<stop offset="0.9568" style="stop-color:#6666AD"/>
		<stop offset="0.9852" style="stop-color:#5C6CB2"/>
	</linearGradient>
	<path class="st0" d="M33.8,43.8H21.2c-5.3,0-9.6-4.3-9.6-9.6V20.7c0-5.3,4.3-9.6,9.6-9.6h12.7c5.3,0,9.6,4.3,9.6,9.6v13.5   C43.4,39.5,39.1,43.8,33.8,43.8z M20.2,13.1c-3.4,0-6.6,3.2-6.6,6.6v15.5c0,3.4,3.2,6.6,6.6,6.6h14.7c3.4,0,6.6-3.2,6.6-6.6V19.7   c0-3.4-3.2-6.6-6.6-6.6H20.2z"/>
	
		<linearGradient id="SVGID_2_" gradientUnits="userSpaceOnUse" x1="23.2184" y1="21.0651" x2="31.798" y2="35.9255" gradientTransform="matrix(1 0 0 -1 0 56)">
		<stop offset="0" style="stop-color:#FFD676"/>
		<stop offset="0.2463" style="stop-color:#F2A454"/>
		<stop offset="0.3793" style="stop-color:#F05C3C"/>
		<stop offset="0.6995" style="stop-color:#C22F86"/>
		<stop offset="0.9568" style="stop-color:#6666AD"/>
		<stop offset="0.9852" style="stop-color:#5C6CB2"/>
	</linearGradient>
	<path class="st1" d="M27.5,18.9c-4.7,0-8.6,3.8-8.6,8.6s3.8,8.6,8.6,8.6s8.6-3.8,8.6-8.6S32.2,18.9,27.5,18.9z M27.4,34.4   c-3.7,0-6.8-3-6.8-6.8s3-6.8,6.8-6.8s6.8,3,6.8,6.8S31.1,34.4,27.4,34.4z"/>
	<circle class="st2" cx="36.1" cy="18.3" r="2"/>
</g>
<linearGradient id="SVGID_3_" gradientUnits="userSpaceOnUse" x1="14.3027" y1="5.6409" x2="40.7467" y2="51.4434" gradientTransform="matrix(1 0 0 -1 0 56)">
	<stop offset="0" style="stop-color:#FFD676"/>
	<stop offset="0.2463" style="stop-color:#F2A454"/>
	<stop offset="0.3793" style="stop-color:#F05C3C"/>
	<stop offset="0.6995" style="stop-color:#C22F86"/>
	<stop offset="0.9568" style="stop-color:#6666AD"/>
	<stop offset="0.9852" style="stop-color:#5C6CB2"/>
</linearGradient>
<path class="st3" d="M27.5,53.9c-14.6,0-26.4-11.8-26.4-26.4c0-14.6,11.8-26.4,26.4-26.4c14.6,0,26.4,11.8,26.4,26.4  C53.9,42.1,42.1,53.9,27.5,53.9z M27.5,3.1C14,3.1,3.1,14,3.1,27.5S14,51.9,27.5,51.9S51.9,41,51.9,27.5S41,3.1,27.5,3.1z"/>
</svg>