<?xml version="1.0" encoding="UTF-8"?>
<!-- Generator: Adobe Illustrator 23.1.1, SVG Export Plug-In . SVG Version: 6.00 Build 0)  -->
<svg version="1.1" id="Calque_1" xmlns="http://www.w3.org/2000/svg" xmlns:xlink="http://www.w3.org/1999/xlink" x="0px" y="0px" viewBox="0 0 55 55" style="enable-background:new 0 0 55 55;" xml:space="preserve">
<style type="text/css">
	.st0{fill:#FF0000;}
	.st1{fill:#FFFFFF;}
</style>
<path class="st0" d="M27.5,53.9c-14.6,0-26.4-11.9-26.4-26.4S12.9,1.1,27.5,1.1s26.4,11.9,26.4,26.4S42.1,53.9,27.5,53.9z M27.5,3.1  C14,3.1,3.1,14,3.1,27.5s11,24.4,24.4,24.4s24.4-11,24.4-24.4S41,3.1,27.5,3.1z"/>
<g>
	<path id="lozenge-path" class="st0" d="M43.2,19.6c-0.4-1.4-1.5-2.5-2.9-2.9C37.8,16,27.5,16,27.5,16s-10.2,0-12.8,0.7   c-1.4,0.4-2.5,1.5-2.9,2.9c-0.7,2.6-0.7,7.9-0.7,7.9s0,5.3,0.7,7.9c0.4,1.4,1.5,2.5,2.9,2.9C17.3,39,27.5,39,27.5,39   s10.3,0,12.8-0.7c1.4-0.4,2.5-1.5,2.9-2.9c0.7-2.6,0.7-7.9,0.7-7.9S43.9,22.2,43.2,19.6z"/>
	<polygon id="play-polygon" class="st1" points="24.2,32.4 32.7,27.5 24.2,22.6  "/>
</g>
</svg>